<svg width="179" height="47" viewBox="0 0 179 47" fill="none" xmlns="http://www.w3.org/2000/svg">
<g style="mix-blend-mode:color-dodge" opacity="0.3" clip-path="url(#clip0_250_152)">
<path d="M0 3.80963H9.68029V37.1976H0V3.80963Z" fill="#E235CE"/>
<path d="M15.9704 37.1976V18.77L14.2646 17.7213V14.6821L20.3628 12.9913H25.1816V16.6726L25.5228 16.2445C25.7573 15.9449 26.0772 15.581 26.5249 15.153C26.9727 14.7249 27.4631 14.3183 28.0175 13.9116C28.5719 13.505 29.2328 13.1625 29.9791 12.8629C30.7254 12.5633 31.493 12.4135 32.2393 12.4135C34.8193 12.4135 36.653 13.1197 37.7191 14.5537C38.7852 15.9877 39.3183 18.3634 39.3183 21.7022V22.2158C39.3183 22.4512 39.2969 22.6225 39.2969 22.7509V37.1976H29.9365V21.9376C30.0004 20.1612 29.2328 19.2623 27.6763 19.2623C27.5697 19.2623 27.4631 19.2623 27.3565 19.2837C27.2499 19.3051 27.1646 19.3265 27.0793 19.3479C26.994 19.3693 26.9087 19.3907 26.8021 19.4549C26.6955 19.5191 26.6102 19.5405 26.5249 19.5619C26.4396 19.5833 26.3543 19.6475 26.2691 19.7117C26.1838 19.7759 26.0985 19.8401 26.0345 19.8615C25.9705 19.9043 25.9066 19.9686 25.8 20.0542C25.6934 20.1398 25.6294 20.204 25.5654 20.2468C25.5228 20.2896 25.4375 20.3538 25.3309 20.4394C25.2243 20.525 25.1603 20.5892 25.1177 20.632V37.2404H15.9491L15.9704 37.1976Z" fill="#E235CE"/>
<path d="M47.1004 36.898C45.288 36.2987 44.1152 35.7208 43.6035 35.143L44.3498 30.5628C44.9895 31.1835 46.0556 31.74 47.5694 32.1894C49.0833 32.6389 50.6185 32.8743 52.175 32.8743C53.3051 32.8743 54.094 32.7245 54.5205 32.4462C54.9469 32.168 55.1602 31.7614 55.1602 31.2477C55.1602 30.734 54.7764 30.306 54.0301 29.9207C53.2625 29.5355 52.0471 29.086 50.3413 28.5724C45.9276 27.2454 43.7314 24.4845 43.7314 20.311C43.7314 18.5988 44.2219 17.1434 45.2027 15.9021C46.1835 14.6821 47.4415 13.7832 48.9767 13.2482C50.5119 12.6917 52.2177 12.4135 54.1154 12.4135C57.3563 12.4135 59.7444 13.0127 61.2583 14.2113L61.77 14.7035L60.512 18.77C59.254 17.5287 57.5482 16.908 55.3521 16.908C53.561 16.908 52.6655 17.4431 52.6655 18.5132C52.6655 18.8128 52.7294 19.0696 52.8574 19.2623C52.9853 19.4549 53.2198 19.6261 53.5183 19.7759C53.8169 19.9257 54.1367 20.0328 54.4352 20.1184C54.7337 20.204 55.1602 20.311 55.7145 20.4608C56.2689 20.6106 56.738 20.739 57.1431 20.8461C59.3606 21.5951 60.9598 22.6225 61.9619 23.9708C62.9641 25.3192 63.4758 27.01 63.4758 29.0218C63.4758 34.8647 59.8084 37.7969 52.4949 37.7969C50.7251 37.7969 48.9127 37.4972 47.1004 36.898Z" fill="#E235CE"/>
<path d="M79.98 34.9718C79.7881 35.2072 79.511 35.464 79.1058 35.7637C78.722 36.0633 78.2743 36.3629 77.7625 36.684C77.2508 37.005 76.6538 37.2404 75.9288 37.4759C75.2039 37.6899 74.4789 37.7969 73.7113 37.7969C68.6153 37.7969 66.0566 35.2714 66.0566 30.199C66.0566 29.2145 66.2272 28.3156 66.5897 27.4809C66.9522 26.6462 67.4213 25.9613 67.9756 25.3834C68.5513 24.8055 69.2123 24.3133 70.0226 23.8638C70.8328 23.4144 71.6217 23.0719 72.4107 22.8151C73.2209 22.5583 74.0525 22.3443 74.948 22.173C75.8435 22.0018 76.6325 21.8948 77.3361 21.8306C78.0397 21.7664 78.7007 21.745 79.3404 21.745V21.2313C79.3404 20.0756 79.0419 19.2623 78.4235 18.7914C77.8052 18.3206 76.8244 18.0851 75.4597 18.0851C74.287 18.0851 73.0716 18.2136 71.7923 18.4918C70.5343 18.77 69.5322 19.0911 68.8072 19.4763L66.9948 15.6025C68.2742 14.7678 69.9586 14.0401 72.0055 13.398C74.0738 12.7559 76.1634 12.4349 78.3169 12.4349C80.2146 12.4349 81.7711 12.6275 83.0078 12.9913C84.2445 13.3552 85.2253 13.9759 85.9929 14.8748C86.7605 15.7523 87.2936 16.8866 87.6134 18.235C87.9332 19.5833 88.1038 21.3169 88.1038 23.4144V35.0146L88.8927 37.2404H81.1101L80.1933 34.7149L79.9161 35.036L79.98 34.9718ZM78.722 32.6175C78.9353 32.5105 79.1698 32.3607 79.383 32.1466V25.3192C78.2316 25.3192 77.3148 25.6402 76.6325 26.2823C75.9501 26.9244 75.609 27.9089 75.609 29.2359C75.609 31.6116 76.4192 32.7887 78.0184 32.7887C78.2743 32.7887 78.4875 32.7459 78.722 32.6389V32.6175Z" fill="#E235CE"/>
<path d="M93.32 37.0041V18.5765L91.6143 17.5278V14.4886L97.7124 12.7978H102.531V16.4791L102.872 16.051C103.107 15.7514 103.427 15.3875 103.875 14.9595C104.322 14.5314 104.813 14.1248 105.367 13.7181C105.921 13.3115 106.582 12.9691 107.329 12.6694C108.075 12.3698 108.843 12.22 109.589 12.22C112.169 12.22 114.003 12.9263 115.069 14.3602C116.135 15.7942 116.668 18.1699 116.668 21.5087V22.0223C116.668 22.2578 116.647 22.429 116.647 22.5574V37.0041H107.286V21.7441C107.35 19.9677 106.582 19.0688 105.026 19.0688C104.919 19.0688 104.813 19.0688 104.706 19.0902C104.599 19.1116 104.514 19.133 104.429 19.1544C104.344 19.1758 104.258 19.1972 104.152 19.2614C104.045 19.3256 103.96 19.347 103.875 19.3684C103.789 19.3898 103.704 19.454 103.619 19.5182C103.533 19.5824 103.448 19.6467 103.384 19.6681C103.32 19.7109 103.256 19.7751 103.15 19.8607C103.043 19.9463 102.979 20.0105 102.915 20.0533C102.872 20.0961 102.787 20.1603 102.68 20.2459C102.574 20.3315 102.51 20.3957 102.467 20.4385V37.0469H93.2987L93.32 37.0041Z" fill="#E235CE"/>
<path d="M122.944 18.77L121.238 17.7213V14.6822L127.336 12.9913H132.07V37.1976H122.923V18.77H122.944ZM122.411 5.67168V4.66576L127.059 0H128.147L133.008 4.66576V5.67168L128.147 10.3802H127.059L122.411 5.67168Z" fill="#E235CE"/>
<path d="M139.447 35.4854C138.445 33.9445 137.933 31.3547 137.933 27.6735V17.9996H135.972V14.0401L139.319 12.9914L142.219 6.35657H147.208V12.9914H151.857V17.9996H147.123V28.5938C147.123 30.1134 147.336 31.1193 147.784 31.6116C148.211 32.1038 148.893 32.3607 149.81 32.3607C150.215 32.3607 150.556 32.3179 150.897 32.2108C151.217 32.1252 151.473 31.9754 151.686 31.8042V35.6781C151.409 35.9563 151.025 36.2345 150.577 36.5128C150.13 36.791 149.362 37.0692 148.317 37.3475C147.272 37.6257 146.1 37.7755 144.82 37.7755C142.262 37.7755 140.492 37.005 139.469 35.464L139.447 35.4854Z" fill="#E235CE"/>
<path d="M162.582 46.1439C160.855 45.566 159.597 44.7955 158.808 43.8324L160.279 40.7504C161.367 41.3711 163.115 41.6922 165.503 41.6922C166.25 41.6922 166.911 41.6065 167.465 41.4353C168.019 41.2641 168.51 40.9645 168.936 40.5364C169.363 40.1084 169.704 39.5091 169.938 38.7386C170.173 37.9681 170.28 37.005 170.301 35.8707V33.4308L170.024 33.8802C169.832 34.1799 169.555 34.5437 169.149 34.9718C168.766 35.3998 168.318 35.8279 167.828 36.2559C167.337 36.684 166.74 37.0478 166.036 37.3474C165.333 37.6471 164.608 37.7969 163.862 37.7969C161.047 37.7969 159.064 37.005 157.913 35.4212C156.761 33.8374 156.186 31.1621 156.186 27.3952V17.2932L155.162 16.2659V12.9913H165.482V29.1931C165.482 30.0706 165.61 30.7126 165.887 31.1193C166.164 31.5259 166.719 31.74 167.55 31.74C167.806 31.74 168.041 31.6972 168.297 31.6116C168.552 31.5259 168.787 31.4189 169.022 31.2477C169.256 31.0979 169.512 30.9053 169.768 30.6698V17.2932L168.211 16.2659V12.9913H179.022V33.8588C179.022 38.0537 178.126 41.2855 176.356 43.5756C174.587 45.8657 171.836 47 168.105 47C166.164 47 164.331 46.7218 162.604 46.1439H162.582Z" fill="#E235CE"/>
</g>
<defs>
<clipPath id="clip0_250_152">
<rect width="179" height="47" fill="white"/>
</clipPath>
</defs>
</svg>
